<mxfile host="Electron" agent="Mozilla/5.0 (Windows NT 10.0; Win64; x64) AppleWebKit/537.36 (KHTML, like Gecko) draw.io/24.7.5 Chrome/126.0.6478.183 Electron/31.3.0 Safari/537.36" version="24.7.5">
  <diagram name="第 1 页" id="GyaJyf8mcjmdu9Av58s_">
    <mxGraphModel dx="2191" dy="2193" grid="1" gridSize="10" guides="1" tooltips="1" connect="1" arrows="1" fold="1" page="1" pageScale="1" pageWidth="827" pageHeight="1169" math="0" shadow="0">
      <root>
        <mxCell id="0" />
        <mxCell id="1" parent="0" />
        <mxCell id="pZlWNLY9USR9-3rheVkw-8" style="edgeStyle=orthogonalEdgeStyle;rounded=0;orthogonalLoop=1;jettySize=auto;html=1;exitX=0.5;exitY=1;exitDx=0;exitDy=0;entryX=0.5;entryY=0;entryDx=0;entryDy=0;" parent="1" source="pZlWNLY9USR9-3rheVkw-1" target="pZlWNLY9USR9-3rheVkw-7" edge="1">
          <mxGeometry relative="1" as="geometry" />
        </mxCell>
        <mxCell id="pZlWNLY9USR9-3rheVkw-1" value="&lt;font style=&quot;font-size: 16px;&quot;&gt;Password&lt;/font&gt;" style="rounded=0;whiteSpace=wrap;html=1;fillColor=#60a917;fontColor=#ffffff;strokeColor=#2D7600;" parent="1" vertex="1">
          <mxGeometry x="160" y="80" width="120" height="60" as="geometry" />
        </mxCell>
        <mxCell id="pZlWNLY9USR9-3rheVkw-17" style="edgeStyle=orthogonalEdgeStyle;rounded=0;orthogonalLoop=1;jettySize=auto;html=1;exitX=0.5;exitY=1;exitDx=0;exitDy=0;entryX=0.5;entryY=0;entryDx=0;entryDy=0;" parent="1" source="pZlWNLY9USR9-3rheVkw-2" target="pZlWNLY9USR9-3rheVkw-3" edge="1">
          <mxGeometry relative="1" as="geometry" />
        </mxCell>
        <mxCell id="pZlWNLY9USR9-3rheVkw-2" value="HMAC-SHA256" style="rounded=0;whiteSpace=wrap;html=1;fillColor=#d80073;fontColor=#ffffff;strokeColor=#A50040;" parent="1" vertex="1">
          <mxGeometry x="190" y="540" width="120" height="60" as="geometry" />
        </mxCell>
        <mxCell id="pZlWNLY9USR9-3rheVkw-21" style="edgeStyle=orthogonalEdgeStyle;rounded=0;orthogonalLoop=1;jettySize=auto;html=1;exitX=0.5;exitY=1;exitDx=0;exitDy=0;entryX=0.5;entryY=0;entryDx=0;entryDy=0;" parent="1" source="XuI4WEGzpDmxxw7IBC3y-11" target="pZlWNLY9USR9-3rheVkw-20" edge="1">
          <mxGeometry relative="1" as="geometry" />
        </mxCell>
        <mxCell id="pZlWNLY9USR9-3rheVkw-3" value="&lt;span style=&quot;font-size: 16px;&quot;&gt;Compare&lt;/span&gt;" style="rounded=0;whiteSpace=wrap;html=1;fillColor=#1ba1e2;fontColor=#ffffff;strokeColor=#006EAF;" parent="1" vertex="1">
          <mxGeometry x="589" y="640" width="120" height="60" as="geometry" />
        </mxCell>
        <mxCell id="pZlWNLY9USR9-3rheVkw-19" style="edgeStyle=orthogonalEdgeStyle;rounded=0;orthogonalLoop=1;jettySize=auto;html=1;exitX=0.5;exitY=1;exitDx=0;exitDy=0;entryX=0.75;entryY=0;entryDx=0;entryDy=0;" parent="1" source="pZlWNLY9USR9-3rheVkw-4" target="pZlWNLY9USR9-3rheVkw-3" edge="1">
          <mxGeometry relative="1" as="geometry" />
        </mxCell>
        <mxCell id="pZlWNLY9USR9-3rheVkw-4" value="HMAC-SHA256" style="rounded=0;whiteSpace=wrap;html=1;fillColor=#d80073;fontColor=#ffffff;strokeColor=#A50040;" parent="1" vertex="1">
          <mxGeometry x="699" y="540" width="120" height="60" as="geometry" />
        </mxCell>
        <mxCell id="pZlWNLY9USR9-3rheVkw-11" style="edgeStyle=orthogonalEdgeStyle;rounded=0;orthogonalLoop=1;jettySize=auto;html=1;exitX=1;exitY=0.5;exitDx=0;exitDy=0;entryX=0;entryY=0.5;entryDx=0;entryDy=0;endArrow=none;endFill=0;startArrow=classic;startFill=1;" parent="1" source="pZlWNLY9USR9-3rheVkw-5" target="pZlWNLY9USR9-3rheVkw-10" edge="1">
          <mxGeometry relative="1" as="geometry" />
        </mxCell>
        <mxCell id="XuI4WEGzpDmxxw7IBC3y-6" style="edgeStyle=orthogonalEdgeStyle;rounded=0;orthogonalLoop=1;jettySize=auto;html=1;exitX=0.5;exitY=1;exitDx=0;exitDy=0;entryX=0.5;entryY=0;entryDx=0;entryDy=0;" edge="1" parent="1" source="pZlWNLY9USR9-3rheVkw-5" target="XuI4WEGzpDmxxw7IBC3y-5">
          <mxGeometry relative="1" as="geometry" />
        </mxCell>
        <mxCell id="pZlWNLY9USR9-3rheVkw-5" value="&lt;font style=&quot;font-size: 16px;&quot;&gt;Compare&lt;/font&gt;" style="rounded=0;whiteSpace=wrap;html=1;fillColor=#1ba1e2;fontColor=#ffffff;strokeColor=#006EAF;" parent="1" vertex="1">
          <mxGeometry x="589" y="210" width="120" height="60" as="geometry" />
        </mxCell>
        <mxCell id="pZlWNLY9USR9-3rheVkw-13" style="edgeStyle=orthogonalEdgeStyle;rounded=0;orthogonalLoop=1;jettySize=auto;html=1;exitX=0.5;exitY=1;exitDx=0;exitDy=0;entryX=0.5;entryY=0;entryDx=0;entryDy=0;" parent="1" source="XuI4WEGzpDmxxw7IBC3y-8" target="pZlWNLY9USR9-3rheVkw-2" edge="1">
          <mxGeometry relative="1" as="geometry" />
        </mxCell>
        <mxCell id="pZlWNLY9USR9-3rheVkw-6" value="&lt;font style=&quot;font-size: 17px;&quot;&gt;Generate chanllenge&lt;/font&gt;" style="rounded=0;whiteSpace=wrap;html=1;fillColor=#1ba1e2;fontColor=#ffffff;strokeColor=#006EAF;" parent="1" vertex="1">
          <mxGeometry x="589" y="370" width="120" height="60" as="geometry" />
        </mxCell>
        <mxCell id="pZlWNLY9USR9-3rheVkw-9" style="edgeStyle=orthogonalEdgeStyle;rounded=0;orthogonalLoop=1;jettySize=auto;html=1;exitX=1;exitY=0.5;exitDx=0;exitDy=0;entryX=0;entryY=0.5;entryDx=0;entryDy=0;" parent="1" source="pZlWNLY9USR9-3rheVkw-7" target="pZlWNLY9USR9-3rheVkw-5" edge="1">
          <mxGeometry relative="1" as="geometry">
            <Array as="points">
              <mxPoint x="310" y="190" />
              <mxPoint x="310" y="240" />
            </Array>
          </mxGeometry>
        </mxCell>
        <mxCell id="XuI4WEGzpDmxxw7IBC3y-10" style="edgeStyle=orthogonalEdgeStyle;rounded=0;orthogonalLoop=1;jettySize=auto;html=1;exitX=0.5;exitY=1;exitDx=0;exitDy=0;entryX=0.25;entryY=0;entryDx=0;entryDy=0;" edge="1" parent="1" source="pZlWNLY9USR9-3rheVkw-7" target="pZlWNLY9USR9-3rheVkw-2">
          <mxGeometry relative="1" as="geometry" />
        </mxCell>
        <mxCell id="pZlWNLY9USR9-3rheVkw-7" value="&lt;font style=&quot;font-size: 16px;&quot;&gt;Encrypt with MD5&lt;/font&gt;" style="rounded=0;whiteSpace=wrap;html=1;fillColor=#a20025;fontColor=#ffffff;strokeColor=#6F0000;" parent="1" vertex="1">
          <mxGeometry x="160" y="160" width="120" height="60" as="geometry" />
        </mxCell>
        <mxCell id="pZlWNLY9USR9-3rheVkw-18" style="edgeStyle=orthogonalEdgeStyle;rounded=0;orthogonalLoop=1;jettySize=auto;html=1;exitX=0.5;exitY=1;exitDx=0;exitDy=0;entryX=0.5;entryY=0;entryDx=0;entryDy=0;" parent="1" source="pZlWNLY9USR9-3rheVkw-10" target="pZlWNLY9USR9-3rheVkw-4" edge="1">
          <mxGeometry relative="1" as="geometry">
            <mxPoint x="879" y="560" as="targetPoint" />
          </mxGeometry>
        </mxCell>
        <mxCell id="pZlWNLY9USR9-3rheVkw-10" value="&lt;font style=&quot;font-size: 16px;&quot;&gt;Database&amp;nbsp;&lt;/font&gt;&lt;div&gt;&lt;font style=&quot;font-size: 16px;&quot;&gt;(MD5 Encrypted )&lt;/font&gt;&lt;/div&gt;" style="rounded=0;whiteSpace=wrap;html=1;fillColor=#a20025;fontColor=#ffffff;strokeColor=#6F0000;" parent="1" vertex="1">
          <mxGeometry x="800" y="250" width="160" height="60" as="geometry" />
        </mxCell>
        <mxCell id="pZlWNLY9USR9-3rheVkw-15" style="edgeStyle=orthogonalEdgeStyle;rounded=0;orthogonalLoop=1;jettySize=auto;html=1;exitX=1;exitY=0.5;exitDx=0;exitDy=0;entryX=0;entryY=0.25;entryDx=0;entryDy=0;" parent="1" source="pZlWNLY9USR9-3rheVkw-14" target="pZlWNLY9USR9-3rheVkw-5" edge="1">
          <mxGeometry relative="1" as="geometry">
            <Array as="points">
              <mxPoint x="330" y="30" />
              <mxPoint x="330" y="225" />
            </Array>
          </mxGeometry>
        </mxCell>
        <mxCell id="pZlWNLY9USR9-3rheVkw-14" value="&lt;font style=&quot;font-size: 16px;&quot;&gt;Send UserName&lt;/font&gt;" style="rounded=0;whiteSpace=wrap;html=1;fillColor=#60a917;fontColor=#ffffff;strokeColor=#2D7600;" parent="1" vertex="1">
          <mxGeometry x="160" width="120" height="60" as="geometry" />
        </mxCell>
        <mxCell id="pZlWNLY9USR9-3rheVkw-20" value="log in!" style="rounded=0;whiteSpace=wrap;html=1;fillColor=#cdeb8b;strokeColor=#36393d;" parent="1" vertex="1">
          <mxGeometry x="589" y="810" width="120" height="60" as="geometry" />
        </mxCell>
        <mxCell id="KEvku0UGvDGqF_tmLBeO-1" value="" style="endArrow=none;html=1;rounded=0;" parent="1" edge="1">
          <mxGeometry width="50" height="50" relative="1" as="geometry">
            <mxPoint x="374" y="740" as="sourcePoint" />
            <mxPoint x="374" y="-20" as="targetPoint" />
          </mxGeometry>
        </mxCell>
        <mxCell id="TD0FEUEbkSwUDdBRoXbA-1" value="" style="endArrow=none;html=1;rounded=0;" parent="1" edge="1">
          <mxGeometry width="50" height="50" relative="1" as="geometry">
            <mxPoint x="547" y="740" as="sourcePoint" />
            <mxPoint x="547" y="-20" as="targetPoint" />
          </mxGeometry>
        </mxCell>
        <mxCell id="XuI4WEGzpDmxxw7IBC3y-1" value="&lt;font style=&quot;font-size: 28px;&quot;&gt;&lt;b&gt;Client&lt;/b&gt;&lt;/font&gt;" style="text;html=1;align=center;verticalAlign=middle;whiteSpace=wrap;rounded=0;" vertex="1" parent="1">
          <mxGeometry x="190" y="-40" width="60" height="30" as="geometry" />
        </mxCell>
        <mxCell id="XuI4WEGzpDmxxw7IBC3y-3" value="&lt;font style=&quot;font-size: 20px;&quot;&gt;&lt;b&gt;Server Backend&lt;/b&gt;&lt;/font&gt;" style="text;html=1;align=center;verticalAlign=middle;whiteSpace=wrap;rounded=0;" vertex="1" parent="1">
          <mxGeometry x="570" y="-30" width="170" height="30" as="geometry" />
        </mxCell>
        <mxCell id="XuI4WEGzpDmxxw7IBC3y-4" value="&lt;font style=&quot;font-size: 19px;&quot;&gt;&lt;b&gt;Server Authentacation Database&lt;/b&gt;&lt;/font&gt;" style="text;html=1;align=center;verticalAlign=middle;whiteSpace=wrap;rounded=0;" vertex="1" parent="1">
          <mxGeometry x="772.87" y="-30" width="214.25" height="30" as="geometry" />
        </mxCell>
        <mxCell id="XuI4WEGzpDmxxw7IBC3y-7" style="edgeStyle=orthogonalEdgeStyle;rounded=0;orthogonalLoop=1;jettySize=auto;html=1;exitX=0.5;exitY=1;exitDx=0;exitDy=0;entryX=0.5;entryY=0;entryDx=0;entryDy=0;" edge="1" parent="1" source="XuI4WEGzpDmxxw7IBC3y-5" target="pZlWNLY9USR9-3rheVkw-6">
          <mxGeometry relative="1" as="geometry" />
        </mxCell>
        <mxCell id="XuI4WEGzpDmxxw7IBC3y-5" value="Same?" style="rhombus;whiteSpace=wrap;html=1;fillColor=#fff2cc;strokeColor=#d6b656;gradientColor=#ffd966;" vertex="1" parent="1">
          <mxGeometry x="609" y="290" width="80" height="50" as="geometry" />
        </mxCell>
        <mxCell id="XuI4WEGzpDmxxw7IBC3y-9" value="" style="edgeStyle=orthogonalEdgeStyle;rounded=0;orthogonalLoop=1;jettySize=auto;html=1;exitX=0.5;exitY=1;exitDx=0;exitDy=0;entryX=0.5;entryY=0;entryDx=0;entryDy=0;" edge="1" parent="1" source="pZlWNLY9USR9-3rheVkw-6" target="XuI4WEGzpDmxxw7IBC3y-8">
          <mxGeometry relative="1" as="geometry">
            <mxPoint x="649" y="430" as="sourcePoint" />
            <mxPoint x="220" y="525" as="targetPoint" />
          </mxGeometry>
        </mxCell>
        <mxCell id="XuI4WEGzpDmxxw7IBC3y-13" style="edgeStyle=orthogonalEdgeStyle;rounded=0;orthogonalLoop=1;jettySize=auto;html=1;exitX=0.5;exitY=1;exitDx=0;exitDy=0;entryX=0.25;entryY=0;entryDx=0;entryDy=0;" edge="1" parent="1" source="XuI4WEGzpDmxxw7IBC3y-8" target="pZlWNLY9USR9-3rheVkw-4">
          <mxGeometry relative="1" as="geometry" />
        </mxCell>
        <mxCell id="XuI4WEGzpDmxxw7IBC3y-8" value="&lt;font style=&quot;font-size: 14px;&quot;&gt;8 random byte&lt;/font&gt;" style="rounded=0;whiteSpace=wrap;html=1;fillColor=#60a917;fontColor=#ffffff;strokeColor=#2D7600;" vertex="1" parent="1">
          <mxGeometry x="599" y="460" width="100" height="40" as="geometry" />
        </mxCell>
        <mxCell id="XuI4WEGzpDmxxw7IBC3y-12" value="" style="edgeStyle=orthogonalEdgeStyle;rounded=0;orthogonalLoop=1;jettySize=auto;html=1;exitX=0.5;exitY=1;exitDx=0;exitDy=0;entryX=0.5;entryY=0;entryDx=0;entryDy=0;" edge="1" parent="1" source="pZlWNLY9USR9-3rheVkw-3" target="XuI4WEGzpDmxxw7IBC3y-11">
          <mxGeometry relative="1" as="geometry">
            <mxPoint x="649" y="700" as="sourcePoint" />
            <mxPoint x="649" y="790" as="targetPoint" />
          </mxGeometry>
        </mxCell>
        <mxCell id="XuI4WEGzpDmxxw7IBC3y-11" value="Same?" style="rhombus;whiteSpace=wrap;html=1;fillColor=#fff2cc;gradientColor=#ffd966;strokeColor=#d6b656;" vertex="1" parent="1">
          <mxGeometry x="609" y="730" width="80" height="50" as="geometry" />
        </mxCell>
        <mxCell id="XuI4WEGzpDmxxw7IBC3y-15" value="&lt;font style=&quot;font-size: 22px;&quot;&gt;Plaintext&lt;/font&gt;" style="rounded=0;whiteSpace=wrap;html=1;fillColor=#60a917;fontColor=#ffffff;strokeColor=#2D7600;" vertex="1" parent="1">
          <mxGeometry x="-130" y="10" width="120" height="50" as="geometry" />
        </mxCell>
        <mxCell id="XuI4WEGzpDmxxw7IBC3y-17" value="&lt;font style=&quot;font-size: 22px;&quot;&gt;MD5 Encrypted&lt;/font&gt;" style="rounded=0;whiteSpace=wrap;html=1;fillColor=#a20025;fontColor=#ffffff;strokeColor=#6F0000;" vertex="1" parent="1">
          <mxGeometry x="-130" y="100" width="120" height="50" as="geometry" />
        </mxCell>
        <mxCell id="XuI4WEGzpDmxxw7IBC3y-18" value="&lt;font style=&quot;font-size: 22px;&quot;&gt;HMAC-SHA256&lt;/font&gt;" style="rounded=0;whiteSpace=wrap;html=1;fillColor=#d80073;fontColor=#ffffff;strokeColor=#A50040;" vertex="1" parent="1">
          <mxGeometry x="-130" y="190" width="120" height="50" as="geometry" />
        </mxCell>
        <mxCell id="XuI4WEGzpDmxxw7IBC3y-20" value="" style="sketch=0;aspect=fixed;pointerEvents=1;shadow=0;dashed=0;html=1;strokeColor=none;labelPosition=center;verticalLabelPosition=bottom;verticalAlign=top;align=center;fillColor=#00188D;shape=mxgraph.mscae.enterprise.database_generic" vertex="1" parent="1">
          <mxGeometry x="854.1" y="20" width="51.8" height="70" as="geometry" />
        </mxCell>
        <mxCell id="XuI4WEGzpDmxxw7IBC3y-21" value="" style="sketch=0;aspect=fixed;pointerEvents=1;shadow=0;dashed=0;html=1;strokeColor=none;labelPosition=center;verticalLabelPosition=bottom;verticalAlign=top;align=center;fillColor=#00188D;shape=mxgraph.azure.server_rack" vertex="1" parent="1">
          <mxGeometry x="629" y="15" width="80" height="80" as="geometry" />
        </mxCell>
        <mxCell id="XuI4WEGzpDmxxw7IBC3y-22" value="" style="sketch=0;aspect=fixed;pointerEvents=1;shadow=0;dashed=0;html=1;strokeColor=none;labelPosition=center;verticalLabelPosition=bottom;verticalAlign=top;align=center;fillColor=#00188D;shape=mxgraph.azure.computer" vertex="1" parent="1">
          <mxGeometry x="90" y="-40" width="50" height="45" as="geometry" />
        </mxCell>
      </root>
    </mxGraphModel>
  </diagram>
</mxfile>
